<svg xmlns="http://www.w3.org/2000/svg" viewBox="0 0 32 32" width="32" height="32">
  <rect width="32" height="32" rx="8" fill="#18181b" />
  <path d="M16 6.5a9.5 9.5 0 0 0-8.2 14.28L6.5 25.5l4.86-1.27A9.5 9.5 0 1 0 16 6.5Zm0 2.2a7.3 7.3 0 1 1-3.72 13.58l-.34-.2-2.88.75.77-2.8-.22-.36A7.3 7.3 0 0 1 16 8.7Z" fill="#25d366"/>
  <path d="M12.9 12.2c-.2-.45-.4-.46-.6-.47h-.5a.98.98 0 0 0-.7.33c-.24.26-.92.9-.92 2.2s.94 2.55 1.07 2.73c.13.17 1.83 2.93 4.53 4 2.24.88 2.7.7 3.19.66.48-.04 1.55-.63 1.77-1.25.22-.61.22-1.14.15-1.25-.06-.11-.24-.17-.5-.3-.26-.13-1.55-.77-1.79-.85-.24-.09-.42-.13-.6.13-.17.26-.68.85-.83 1.03-.16.17-.31.2-.57.07-.26-.13-1.1-.4-2.1-1.3-.78-.69-1.3-1.55-1.46-1.81-.15-.26-.02-.4.11-.53.12-.12.26-.31.4-.46.12-.16.16-.27.25-.44.09-.18.04-.33-.02-.46-.07-.13-.57-1.43-.8-1.95Z" fill="#25d366"/>
</svg>
